# xmcd
#
# Track frame offsets: 
#        150
#        19264
#        41053
#        59162
#        74607
#        89585
#        100429
#        111945
#        129429
#        152978
#        165515
#        187774
#        205062
#
# Disc length: 2927 seconds
#
# Revision: 2
# Processed by: cddbd v1.5.2PL0 Copyright (c) Steve Scherf et al.
# Submitted via: ExactAudioCopy v0.95b4
#
DISCID=bc0b6d0d
DTITLE=Σύννεφα με Παντελόνια - Τίποτα δεν Κρύβεται Κάτω από τον Ήλιο
DYEAR=1900
DGENRE=Rock
TTITLE0=Δωσ' μου ένα Λόγο
TTITLE1=Σύννεφα με Παντελόνια
TTITLE2=Βυθίζομαι σ' Αυτό που Μισώ
TTITLE3=Ασπρόμαυρη Ζωή
TTITLE4=’χρωμη Νύκτα
TTITLE5=Τίποτα δεν Κρύβεται Κάτω από τον Ήλιο
TTITLE6=Μικρέ Μου Καθρέφτη
TTITLE7=Η Βροχή
TTITLE8=Ταξίδεψε Με
TTITLE9=’γρια Κυκλάμινα
TTITLE10=Σ' ο,τι Αγαπάς
TTITLE11=Τρέχω πιο Γρήγορα απ' το Φως
TTITLE12=Θέλω Απόψε Πάλι να σε δω
EXTD=
EXTT0=
EXTT1=
EXTT2=
EXTT3=
EXTT4=
EXTT5=
EXTT6=
EXTT7=
EXTT8=
EXTT9=
EXTT10=
EXTT11=
EXTT12=
PLAYORDER=
